# xmcd
#
# Track frame offsets: 
#        150
#        8064
#        19205
#        34038
#        45564
#        64118
#        74912
#        86306
#        100039
#        110539
#        120717
#        130915
#        142152
#        154658
#        164636
#        177422
#        192016
#        203426
#        222341
#        246576
#
# Disc length: 3486 seconds
#
# Revision: 0
# Processed by: cddbd v1.5.2PL0 Copyright (c) Steve Scherf et al.
# Submitted via: ExactAudioCopy v1.1
#
DISCID=210d9c14
DTITLE=Various Artist - Out and Out Country cd 2
DYEAR=2012
DGENRE=Country
TTITLE0=Don Gibson - Blue Blue Day
TTITLE1=Jack Greene  - There Goes My Everything 
TTITLE2=Jeanne Pruett - Satin Sheets
TTITLE3=Merle Haggard - Okie From Muskogee
TTITLE4=Juice Newton - Angel Of The Morning
TTITLE5=Dolly Parton - Honky Tonk Angels
TTITLE6=Kitty Wells - Heartbreak USA
TTITLE7=Tanya Tucker - If Your Heart Ain’t Busy Tonight
TTITLE8=Porter Wagoner - Sorrow On The Rocks
TTITLE9=Faron Young - Live Fast, Love Hard, Die Young
TTITLE10=Willie Nelson - Pride Wins Again
TTITLE11=Ferlin Husky - Country Music Is Here To Stay
TTITLE12=Johnny Cash - Johnny Cash I Walk The Line
TTITLE13=Jim Reeves - Just Call Me
TTITLE14=Janie Fricke - Do Me With
TTITLE15=Lacy J Dalton - Working Class Man
TTITLE16=Patsy Cline - Crazy Dreams
TTITLE17=Alabama - I Wanna Be With You Tonight
TTITLE18=Restless Heart - The Bluest Eyes In Texas
TTITLE19=Kenny Rogers - Conditions (Just Dropped In)
EXTD=
EXTT0=
EXTT1=
EXTT2=
EXTT3=
EXTT4=
EXTT5=
EXTT6=
EXTT7=
EXTT8=
EXTT9=
EXTT10=
EXTT11=
EXTT12=
EXTT13=
EXTT14=
EXTT15=
EXTT16=
EXTT17=
EXTT18=
EXTT19=
PLAYORDER=
